<svg id="Component_191_1" data-name="Component 191 – 1" xmlns="http://www.w3.org/2000/svg" width="165.652" height="41.551" viewBox="0 0 165.652 41.551">
    <defs>
        <style>
            .cls-4{fill:#fff}
        </style>
    </defs>
    <g id="Group_11581" data-name="Group 11581" transform="translate(-32 -29.5)">
        <path id="Path_17100" data-name="Path 17100" d="M5.449-2.03A2.354 2.354 0 0 1 4.7-.464a2.456 2.456 0 0 1-1.677.552 2.255 2.255 0 0 1-1.817-.813A3.271 3.271 0 0 1 .523-2.9v-.615a3.646 3.646 0 0 1 .319-1.569 2.38 2.38 0 0 1 .9-1.039A2.514 2.514 0 0 1 3.1-6.486a2.312 2.312 0 0 1 1.635.569 2.382 2.382 0 0 1 .716 1.575H4.6a1.83 1.83 0 0 0-.477-1.107A1.445 1.445 0 0 0 3.1-5.792a1.51 1.51 0 0 0-1.268.6 2.742 2.742 0 0 0-.459 1.7v.62a2.819 2.819 0 0 0 .435 1.657A1.406 1.406 0 0 0 3.023-.6 1.624 1.624 0 0 0 4.1-.921a1.768 1.768 0 0 0 .5-1.11zm.809-.391a2.808 2.808 0 0 1 .275-1.257A2.049 2.049 0 0 1 7.3-4.54a2.081 2.081 0 0 1 1.118-.3 2.005 2.005 0 0 1 1.571.672 2.587 2.587 0 0 1 .6 1.789v.057a2.833 2.833 0 0 1-.266 1.246 2.019 2.019 0 0 1-.76.859 2.105 2.105 0 0 1-1.139.305 2 2 0 0 1-1.566-.672 2.574 2.574 0 0 1-.6-1.78zm.817.1a2.034 2.034 0 0 0 .367 1.27 1.174 1.174 0 0 0 .982.479 1.167 1.167 0 0 0 .984-.486 2.224 2.224 0 0 0 .365-1.36A2.031 2.031 0 0 0 9.4-3.689a1.181 1.181 0 0 0-.987-.486 1.167 1.167 0 0 0-.971.479 2.208 2.208 0 0 0-.367 1.371zm5.3-2.43.022.527a1.756 1.756 0 0 1 1.403-.619 1.359 1.359 0 0 1 1.358.765 1.8 1.8 0 0 1 .617-.554 1.824 1.824 0 0 1 .9-.211q1.564 0 1.591 1.657V0h-.813v-3.138a1.092 1.092 0 0 0-.233-.762 1.026 1.026 0 0 0-.782-.253 1.078 1.078 0 0 0-.751.27 1.1 1.1 0 0 0-.347.727V0h-.817v-3.116a.907.907 0 0 0-1.015-1.037 1.088 1.088 0 0 0-1.094.681V0H11.6v-4.755zm7.888 0 .022.527a1.756 1.756 0 0 1 1.411-.615 1.359 1.359 0 0 1 1.358.765 1.8 1.8 0 0 1 .617-.554 1.824 1.824 0 0 1 .9-.211q1.564 0 1.591 1.657V0h-.813v-3.138a1.092 1.092 0 0 0-.239-.762 1.026 1.026 0 0 0-.782-.253 1.078 1.078 0 0 0-.751.27 1.1 1.1 0 0 0-.347.727V0h-.817v-3.116A.907.907 0 0 0 21.4-4.153a1.088 1.088 0 0 0-1.094.681V0h-.816v-4.755zM30.318-.47a1.727 1.727 0 0 1-1.393.558 1.478 1.478 0 0 1-1.158-.442 1.912 1.912 0 0 1-.4-1.307v-3.094h.813v3.072q0 1.081.879 1.081A1.217 1.217 0 0 0 30.3-1.3v-3.455h.813V0h-.773zm2.795-4.285.026.6a1.733 1.733 0 0 1 1.424-.686q1.507 0 1.521 1.7V0h-.813v-3.146a1.1 1.1 0 0 0-.235-.76.942.942 0 0 0-.719-.246 1.173 1.173 0 0 0-.694.211 1.432 1.432 0 0 0-.466.554V0h-.813v-4.755zM38.193 0h-.813v-4.755h.813zm-.879-6.016a.485.485 0 0 1 .121-.334.454.454 0 0 1 .358-.136.461.461 0 0 1 .36.136.48.48 0 0 1 .123.334.464.464 0 0 1-.123.33.469.469 0 0 1-.36.132.462.462 0 0 1-.358-.132.469.469 0 0 1-.121-.33zM41.4-.576a1.171 1.171 0 0 0 .76-.264.928.928 0 0 0 .36-.659h.769a1.474 1.474 0 0 1-.281.778 1.852 1.852 0 0 1-.692.589 2 2 0 0 1-.916.22 1.959 1.959 0 0 1-1.544-.648 2.582 2.582 0 0 1-.573-1.773v-.137a2.863 2.863 0 0 1 .255-1.23 1.941 1.941 0 0 1 .732-.839 2.078 2.078 0 0 1 1.127-.3 1.907 1.907 0 0 1 1.329.479 1.712 1.712 0 0 1 .565 1.244h-.769a1.12 1.12 0 0 0-.349-.758 1.087 1.087 0 0 0-.776-.3 1.138 1.138 0 0 0-.96.446 2.1 2.1 0 0 0-.341 1.29v.154a2.053 2.053 0 0 0 .338 1.266 1.143 1.143 0 0 0 .966.442zM47.14 0a1.708 1.708 0 0 1-.114-.5 1.814 1.814 0 0 1-1.354.589 1.678 1.678 0 0 1-1.154-.4 1.287 1.287 0 0 1-.45-1.009 1.344 1.344 0 0 1 .565-1.154 2.662 2.662 0 0 1 1.589-.411h.791v-.374a.913.913 0 0 0-.255-.679 1.024 1.024 0 0 0-.751-.253 1.185 1.185 0 0 0-.729.22.647.647 0 0 0-.294.532h-.817a1.122 1.122 0 0 1 .253-.688 1.725 1.725 0 0 1 .686-.525 2.306 2.306 0 0 1 .951-.193 1.88 1.88 0 0 1 1.288.411 1.482 1.482 0 0 1 .481 1.134v2.188a2.676 2.676 0 0 0 .167 1.042V0zm-1.349-.62a1.429 1.429 0 0 0 .725-.2 1.2 1.2 0 0 0 .5-.514v-.976h-.637q-1.494 0-1.494.875a.74.74 0 0 0 .255.6.98.98 0 0 0 .651.215zM50.2-5.906v1.151h.888v.628H50.2v2.949a.659.659 0 0 0 .119.428.5.5 0 0 0 .4.143 1.968 1.968 0 0 0 .387-.053V0a2.357 2.357 0 0 1-.624.088 1.012 1.012 0 0 1-.822-.33 1.416 1.416 0 0 1-.277-.936v-2.948h-.866v-.628h.866v-1.152zM54.013.088a2.078 2.078 0 0 1-1.573-.635 2.357 2.357 0 0 1-.606-1.7V-2.4a2.853 2.853 0 0 1 .27-1.263 2.108 2.108 0 0 1 .756-.87 1.9 1.9 0 0 1 1.052-.314 1.781 1.781 0 0 1 1.441.611 2.645 2.645 0 0 1 .514 1.749v.338h-3.221a1.69 1.69 0 0 0 .411 1.136 1.292 1.292 0 0 0 1 .433 1.416 1.416 0 0 0 .729-.176 1.833 1.833 0 0 0 .523-.466l.5.387a2 2 0 0 1-1.796.923zm-.1-4.263a1.084 1.084 0 0 0-.826.358 1.741 1.741 0 0 0-.413 1h2.382v-.062a1.548 1.548 0 0 0-.334-.96 1.021 1.021 0 0 0-.81-.336zm9.334 3.054.914-3.634h.813L63.589 0h-.659l-1.156-3.6L60.649 0h-.659l-1.38-4.755h.809l.936 3.56 1.107-3.56h.655zM66.683 0h-.813v-4.755h.813zM65.8-6.016a.485.485 0 0 1 .121-.334.454.454 0 0 1 .358-.136.461.461 0 0 1 .36.136.48.48 0 0 1 .123.334.464.464 0 0 1-.123.33.469.469 0 0 1-.36.132.462.462 0 0 1-.358-.132.469.469 0 0 1-.121-.33zm3.283.11v1.151h.888v.628h-.888v2.949a.659.659 0 0 0 .119.428.5.5 0 0 0 .4.143A1.968 1.968 0 0 0 70-.659V0a2.357 2.357 0 0 1-.624.088 1.012 1.012 0 0 1-.822-.33 1.416 1.416 0 0 1-.277-.936v-2.948h-.866v-.628h.866v-1.152zm2.65 1.727a1.728 1.728 0 0 1 1.406-.664q1.507 0 1.521 1.7V0h-.81v-3.146a1.1 1.1 0 0 0-.235-.76.942.942 0 0 0-.719-.246 1.173 1.173 0 0 0-.694.211 1.432 1.432 0 0 0-.466.554V0h-.813v-6.75h.813zM82.942-2.03a2.354 2.354 0 0 1-.749 1.567 2.456 2.456 0 0 1-1.677.552A2.255 2.255 0 0 1 78.7-.725a3.271 3.271 0 0 1-.684-2.175v-.615a3.646 3.646 0 0 1 .319-1.569 2.38 2.38 0 0 1 .9-1.039 2.514 2.514 0 0 1 1.354-.363 2.312 2.312 0 0 1 1.635.569 2.382 2.382 0 0 1 .716 1.575h-.848a1.83 1.83 0 0 0-.477-1.107 1.445 1.445 0 0 0-1.026-.343 1.51 1.51 0 0 0-1.268.6 2.742 2.742 0 0 0-.459 1.7v.62a2.819 2.819 0 0 0 .438 1.655 1.406 1.406 0 0 0 1.217.617A1.624 1.624 0 0 0 81.6-.921a1.768 1.768 0 0 0 .5-1.11zm.809-.391a2.808 2.808 0 0 1 .275-1.257 2.049 2.049 0 0 1 .765-.861 2.081 2.081 0 0 1 1.118-.3 2.005 2.005 0 0 1 1.571.672 2.587 2.587 0 0 1 .6 1.789v.057a2.833 2.833 0 0 1-.266 1.246 2.019 2.019 0 0 1-.76.859 2.105 2.105 0 0 1-1.136.308 2 2 0 0 1-1.567-.672 2.574 2.574 0 0 1-.6-1.78zm.817.1a2.034 2.034 0 0 0 .367 1.27 1.174 1.174 0 0 0 .982.479 1.167 1.167 0 0 0 .984-.486 2.224 2.224 0 0 0 .365-1.36 2.031 2.031 0 0 0-.366-1.271 1.181 1.181 0 0 0-.987-.486 1.167 1.167 0 0 0-.971.479 2.208 2.208 0 0 0-.374 1.371zm5.3-2.43.026.6a1.733 1.733 0 0 1 1.424-.686q1.507 0 1.521 1.7V0h-.813v-3.146a1.1 1.1 0 0 0-.235-.76.942.942 0 0 0-.719-.246 1.173 1.173 0 0 0-.694.211 1.432 1.432 0 0 0-.466.554V0H89.1v-4.755zM94.337 0v-4.126h-.751v-.628h.751v-.4a1.652 1.652 0 0 1 .455-1.246 1.764 1.764 0 0 1 1.285-.444 3.87 3.87 0 0 1 1.244.268l-.136.686a2.817 2.817 0 0 0-1.046-.22 1.023 1.023 0 0 0-.754.235.969.969 0 0 0-.231.705v.413h.971v.628h-.971V0zm3.388 0h-.817v-4.755h.817zm1.125-2.417a2.785 2.785 0 0 1 .519-1.76 1.64 1.64 0 0 1 1.358-.666 1.649 1.649 0 0 1 1.323.571V-6.75h.813V0h-.747l-.04-.51a1.656 1.656 0 0 1-1.358.6 1.624 1.624 0 0 1-1.347-.677 2.817 2.817 0 0 1-.521-1.767zm.813.092A2.109 2.109 0 0 0 100-1.059a1.08 1.08 0 0 0 .923.457 1.186 1.186 0 0 0 1.127-.698v-2.18a1.2 1.2 0 0 0-1.121-.672 1.085 1.085 0 0 0-.932.461 2.322 2.322 0 0 0-.333 1.366zM106.1.088a2.078 2.078 0 0 1-1.573-.635 2.357 2.357 0 0 1-.606-1.7V-2.4a2.853 2.853 0 0 1 .27-1.263 2.108 2.108 0 0 1 .756-.87 1.9 1.9 0 0 1 1.053-.31 1.781 1.781 0 0 1 1.441.611 2.645 2.645 0 0 1 .514 1.749v.338h-3.225a1.69 1.69 0 0 0 .411 1.136 1.292 1.292 0 0 0 1 .433 1.416 1.416 0 0 0 .729-.176 1.833 1.833 0 0 0 .523-.466l.5.387a2 2 0 0 1-1.793.919zm-.1-4.263a1.084 1.084 0 0 0-.826.358 1.741 1.741 0 0 0-.413 1h2.382v-.062a1.548 1.548 0 0 0-.334-.96 1.021 1.021 0 0 0-.809-.336zm3.665-.58.026.6a1.733 1.733 0 0 1 1.424-.686q1.507 0 1.521 1.7V0h-.813v-3.146a1.1 1.1 0 0 0-.235-.76.942.942 0 0 0-.719-.246 1.173 1.173 0 0 0-.694.211 1.432 1.432 0 0 0-.466.554V0h-.813v-4.755zm6.1 4.179a1.171 1.171 0 0 0 .76-.264.928.928 0 0 0 .36-.659h.769a1.474 1.474 0 0 1-.281.778 1.852 1.852 0 0 1-.692.589 2 2 0 0 1-.916.22 1.959 1.959 0 0 1-1.545-.648 2.582 2.582 0 0 1-.573-1.773v-.137a2.863 2.863 0 0 1 .253-1.23 1.941 1.941 0 0 1 .732-.839 2.078 2.078 0 0 1 1.127-.3 1.907 1.907 0 0 1 1.329.479 1.712 1.712 0 0 1 .565 1.244h-.769a1.12 1.12 0 0 0-.349-.758 1.087 1.087 0 0 0-.776-.3 1.138 1.138 0 0 0-.96.446 2.1 2.1 0 0 0-.341 1.29v.154a2.053 2.053 0 0 0 .342 1.264 1.143 1.143 0 0 0 .965.444zm4.777.664a2.078 2.078 0 0 1-1.573-.635 2.357 2.357 0 0 1-.606-1.7V-2.4a2.853 2.853 0 0 1 .27-1.263 2.108 2.108 0 0 1 .756-.87 1.9 1.9 0 0 1 1.052-.314 1.781 1.781 0 0 1 1.441.611 2.645 2.645 0 0 1 .514 1.749v.338h-3.221a1.69 1.69 0 0 0 .411 1.136 1.292 1.292 0 0 0 1 .433 1.416 1.416 0 0 0 .729-.176 1.833 1.833 0 0 0 .523-.466l.5.387a2 2 0 0 1-1.796.923zm-.1-4.263a1.084 1.084 0 0 0-.826.358 1.741 1.741 0 0 0-.413 1h2.382v-.062a1.548 1.548 0 0 0-.334-.96 1.021 1.021 0 0 0-.81-.336z" transform="translate(62.525 70.963)"/>
        <text id="MentorPlus" transform="translate(61.652 54.5)" style="font-size:24px;font-family:Roboto-Bold,Roboto;font-weight:700;letter-spacing:.05em;fill:#1d375c"><tspan x="0" y="0">Mentor</tspan><tspan y="0" style="fill:#db1542">Plus</tspan></text>
        <g id="Group_11553" data-name="Group 11553" transform="translate(32 34.075)">
            <rect id="Rectangle_4394" data-name="Rectangle 4394" width="24.019" height="24.019" rx="6" style="fill:#1d375c"/>
            <g id="Group_11551" data-name="Group 11551" transform="translate(3.873 2.135)">
                <path id="Polygon_35" data-name="Polygon 35" class="cls-4" d="m4.1 0 4.1 9.644H0z" transform="translate(7.681 12.26)"/>
                <path id="Path_17086" data-name="Path 17086" class="cls-4" d="M4.15 0 0 13.981h8.3z" transform="translate(0 7.924)"/>
                <circle id="Ellipse_419" data-name="Ellipse 419" class="cls-4" cx="3.617" cy="3.617" transform="translate(.533 5.754)" r="3.617"/>
                <circle id="Ellipse_420" data-name="Ellipse 420" class="cls-4" cx="3.617" cy="3.617" transform="translate(8.018 9.21)" r="3.617"/>
                <path id="Path_17089" data-name="Path 17089" class="cls-4" d="m4.052 6.91 1.091-1.1a2.154 2.154 0 0 1 0-2.526l-1.091-1.1a3.323 3.323 0 0 0 0 4.726zM1.9 9.092l1.061-1.059a9.322 9.322 0 0 1-1.308-2.8s.236-2.94 1.308-4.171L1.9 0a6.383 6.383 0 0 0 0 9.092z" transform="scale(-1) rotate(-53 -13.618 13.576)"/>
            </g>
        </g>
    </g>
</svg>
